<mxfile host="app.diagrams.net" modified="2024-05-06T07:10:32.548Z" agent="Mozilla/5.0 (Windows NT 10.0; Win64; x64; rv:126.0) Gecko/20100101 Firefox/126.0" etag="Ho2gJpDrdiLYPMYFTDfn" version="24.3.1" type="github">
  <diagram name="Page-1" id="zOdBKGRX74QQcObmSCCc">
    <mxGraphModel dx="2045" dy="622" grid="1" gridSize="10" guides="1" tooltips="1" connect="1" arrows="1" fold="1" page="1" pageScale="1" pageWidth="850" pageHeight="1100" math="0" shadow="0">
      <root>
        <mxCell id="0" />
        <mxCell id="1" parent="0" />
        <mxCell id="sHueJC7JdNg4kq73XcRV-1" value="App" style="rounded=1;whiteSpace=wrap;html=1;" vertex="1" parent="1">
          <mxGeometry x="365" y="30" width="120" height="60" as="geometry" />
        </mxCell>
        <mxCell id="sHueJC7JdNg4kq73XcRV-2" value="TopBar" style="rounded=1;whiteSpace=wrap;html=1;fillColor=#fad9d5;strokeColor=#ae4132;dashed=1;" vertex="1" parent="1">
          <mxGeometry x="560" y="120" width="120" height="60" as="geometry" />
        </mxCell>
        <mxCell id="sHueJC7JdNg4kq73XcRV-3" value="" style="endArrow=classic;html=1;rounded=0;exitX=0.5;exitY=1;exitDx=0;exitDy=0;entryX=0.5;entryY=0;entryDx=0;entryDy=0;edgeStyle=orthogonalEdgeStyle;curved=1;fillColor=#f8cecc;strokeColor=#b85450;" edge="1" parent="1" source="sHueJC7JdNg4kq73XcRV-1" target="sHueJC7JdNg4kq73XcRV-2">
          <mxGeometry width="50" height="50" relative="1" as="geometry">
            <mxPoint x="400" y="410" as="sourcePoint" />
            <mxPoint x="450" y="360" as="targetPoint" />
          </mxGeometry>
        </mxCell>
        <mxCell id="sHueJC7JdNg4kq73XcRV-4" value="&lt;div&gt;Main&lt;/div&gt;" style="rounded=1;whiteSpace=wrap;html=1;fillColor=#f8cecc;strokeColor=#b85450;" vertex="1" parent="1">
          <mxGeometry x="365" y="120" width="120" height="60" as="geometry" />
        </mxCell>
        <mxCell id="sHueJC7JdNg4kq73XcRV-5" value="" style="endArrow=classic;html=1;rounded=0;exitX=0.5;exitY=1;exitDx=0;exitDy=0;entryX=0.5;entryY=0;entryDx=0;entryDy=0;edgeStyle=orthogonalEdgeStyle;curved=1;fillColor=#f8cecc;strokeColor=#b85450;" edge="1" parent="1" source="sHueJC7JdNg4kq73XcRV-1" target="sHueJC7JdNg4kq73XcRV-4">
          <mxGeometry width="50" height="50" relative="1" as="geometry">
            <mxPoint x="435" y="100" as="sourcePoint" />
            <mxPoint x="630" y="130" as="targetPoint" />
          </mxGeometry>
        </mxCell>
        <mxCell id="sHueJC7JdNg4kq73XcRV-6" value="Footer" style="rounded=1;whiteSpace=wrap;html=1;fillColor=#fad9d5;strokeColor=#ae4132;dashed=1;" vertex="1" parent="1">
          <mxGeometry x="170" y="120" width="120" height="60" as="geometry" />
        </mxCell>
        <mxCell id="sHueJC7JdNg4kq73XcRV-7" value="" style="endArrow=classic;html=1;rounded=0;exitX=0.5;exitY=1;exitDx=0;exitDy=0;entryX=0.5;entryY=0;entryDx=0;entryDy=0;edgeStyle=orthogonalEdgeStyle;curved=1;fillColor=#f8cecc;strokeColor=#b85450;" edge="1" parent="1" source="sHueJC7JdNg4kq73XcRV-1" target="sHueJC7JdNg4kq73XcRV-6">
          <mxGeometry width="50" height="50" relative="1" as="geometry">
            <mxPoint x="435" y="100" as="sourcePoint" />
            <mxPoint x="630" y="130" as="targetPoint" />
          </mxGeometry>
        </mxCell>
        <mxCell id="sHueJC7JdNg4kq73XcRV-8" value="HomePage" style="rounded=1;whiteSpace=wrap;html=1;fillColor=#d5e8d4;strokeColor=#82b366;" vertex="1" parent="1">
          <mxGeometry x="365" y="210" width="120" height="60" as="geometry" />
        </mxCell>
        <mxCell id="sHueJC7JdNg4kq73XcRV-10" value="" style="endArrow=classic;html=1;rounded=0;exitX=0.5;exitY=1;exitDx=0;exitDy=0;entryX=0.5;entryY=0;entryDx=0;entryDy=0;edgeStyle=orthogonalEdgeStyle;curved=1;fillColor=#d5e8d4;strokeColor=#82b366;" edge="1" parent="1" source="sHueJC7JdNg4kq73XcRV-4" target="sHueJC7JdNg4kq73XcRV-8">
          <mxGeometry width="50" height="50" relative="1" as="geometry">
            <mxPoint x="435" y="100" as="sourcePoint" />
            <mxPoint x="630" y="130" as="targetPoint" />
          </mxGeometry>
        </mxCell>
        <mxCell id="sHueJC7JdNg4kq73XcRV-11" value="CreatePost" style="rounded=1;whiteSpace=wrap;html=1;fillColor=#d5e8d4;strokeColor=#82b366;" vertex="1" parent="1">
          <mxGeometry x="510" y="210" width="120" height="60" as="geometry" />
        </mxCell>
        <mxCell id="sHueJC7JdNg4kq73XcRV-13" value="" style="endArrow=classic;html=1;rounded=0;exitX=0.5;exitY=1;exitDx=0;exitDy=0;entryX=0.5;entryY=0;entryDx=0;entryDy=0;edgeStyle=orthogonalEdgeStyle;curved=1;fillColor=#d5e8d4;strokeColor=#82b366;" edge="1" parent="1" source="sHueJC7JdNg4kq73XcRV-4" target="sHueJC7JdNg4kq73XcRV-11">
          <mxGeometry width="50" height="50" relative="1" as="geometry">
            <mxPoint x="435" y="190" as="sourcePoint" />
            <mxPoint x="435" y="220" as="targetPoint" />
          </mxGeometry>
        </mxCell>
        <mxCell id="sHueJC7JdNg4kq73XcRV-14" value="AllPostsPage" style="rounded=1;whiteSpace=wrap;html=1;fillColor=#d5e8d4;strokeColor=#82b366;" vertex="1" parent="1">
          <mxGeometry x="220" y="210" width="120" height="60" as="geometry" />
        </mxCell>
        <mxCell id="sHueJC7JdNg4kq73XcRV-15" value="" style="endArrow=classic;html=1;rounded=0;exitX=0.5;exitY=1;exitDx=0;exitDy=0;edgeStyle=orthogonalEdgeStyle;curved=1;fillColor=#d5e8d4;strokeColor=#82b366;" edge="1" parent="1" source="sHueJC7JdNg4kq73XcRV-4" target="sHueJC7JdNg4kq73XcRV-14">
          <mxGeometry width="50" height="50" relative="1" as="geometry">
            <mxPoint x="435" y="190" as="sourcePoint" />
            <mxPoint x="580" y="220" as="targetPoint" />
          </mxGeometry>
        </mxCell>
        <mxCell id="sHueJC7JdNg4kq73XcRV-16" value="Post" style="rounded=1;whiteSpace=wrap;html=1;fillColor=#dae8fc;strokeColor=#6c8ebf;" vertex="1" parent="1">
          <mxGeometry x="220" y="300" width="120" height="60" as="geometry" />
        </mxCell>
        <mxCell id="sHueJC7JdNg4kq73XcRV-17" value="" style="endArrow=classic;html=1;rounded=0;exitX=0.5;exitY=1;exitDx=0;exitDy=0;edgeStyle=orthogonalEdgeStyle;curved=1;fillColor=#dae8fc;strokeColor=#6c8ebf;entryX=0.5;entryY=0;entryDx=0;entryDy=0;" edge="1" parent="1" source="sHueJC7JdNg4kq73XcRV-14" target="sHueJC7JdNg4kq73XcRV-16">
          <mxGeometry width="50" height="50" relative="1" as="geometry">
            <mxPoint x="435" y="190" as="sourcePoint" />
            <mxPoint x="290" y="220" as="targetPoint" />
          </mxGeometry>
        </mxCell>
        <mxCell id="sHueJC7JdNg4kq73XcRV-18" value="InputField" style="rounded=1;whiteSpace=wrap;html=1;fillColor=#dae8fc;strokeColor=#6c8ebf;" vertex="1" parent="1">
          <mxGeometry x="510" y="300" width="120" height="60" as="geometry" />
        </mxCell>
        <mxCell id="sHueJC7JdNg4kq73XcRV-19" value="" style="endArrow=classic;html=1;rounded=0;exitX=0.5;exitY=1;exitDx=0;exitDy=0;edgeStyle=orthogonalEdgeStyle;curved=1;fillColor=#dae8fc;strokeColor=#6c8ebf;entryX=0.5;entryY=0;entryDx=0;entryDy=0;" edge="1" parent="1" source="sHueJC7JdNg4kq73XcRV-11" target="sHueJC7JdNg4kq73XcRV-18">
          <mxGeometry width="50" height="50" relative="1" as="geometry">
            <mxPoint x="290" y="280" as="sourcePoint" />
            <mxPoint x="290" y="310" as="targetPoint" />
          </mxGeometry>
        </mxCell>
        <mxCell id="sHueJC7JdNg4kq73XcRV-20" value="UserInfo" style="rounded=1;whiteSpace=wrap;html=1;fillColor=#dae8fc;strokeColor=#6c8ebf;" vertex="1" parent="1">
          <mxGeometry x="660" y="300" width="120" height="60" as="geometry" />
        </mxCell>
        <mxCell id="sHueJC7JdNg4kq73XcRV-21" value="" style="endArrow=classic;html=1;rounded=0;exitX=0.5;exitY=1;exitDx=0;exitDy=0;edgeStyle=orthogonalEdgeStyle;curved=1;fillColor=#dae8fc;strokeColor=#6c8ebf;" edge="1" parent="1" source="sHueJC7JdNg4kq73XcRV-8">
          <mxGeometry width="50" height="50" relative="1" as="geometry">
            <mxPoint x="290" y="280" as="sourcePoint" />
            <mxPoint x="280" y="300" as="targetPoint" />
          </mxGeometry>
        </mxCell>
        <mxCell id="sHueJC7JdNg4kq73XcRV-23" value="" style="endArrow=classic;html=1;rounded=0;exitX=0.5;exitY=1;exitDx=0;exitDy=0;edgeStyle=orthogonalEdgeStyle;curved=1;fillColor=#dae8fc;strokeColor=#6c8ebf;entryX=0.5;entryY=0;entryDx=0;entryDy=0;" edge="1" parent="1" source="sHueJC7JdNg4kq73XcRV-11" target="sHueJC7JdNg4kq73XcRV-20">
          <mxGeometry width="50" height="50" relative="1" as="geometry">
            <mxPoint x="580" y="280" as="sourcePoint" />
            <mxPoint x="580" y="310" as="targetPoint" />
          </mxGeometry>
        </mxCell>
        <mxCell id="sHueJC7JdNg4kq73XcRV-24" value="ProfilePage" style="rounded=1;whiteSpace=wrap;html=1;fillColor=#d5e8d4;strokeColor=#82b366;" vertex="1" parent="1">
          <mxGeometry x="80" y="210" width="120" height="60" as="geometry" />
        </mxCell>
        <mxCell id="sHueJC7JdNg4kq73XcRV-25" value="" style="endArrow=classic;html=1;rounded=0;exitX=0.5;exitY=1;exitDx=0;exitDy=0;edgeStyle=orthogonalEdgeStyle;curved=1;fillColor=#d5e8d4;strokeColor=#82b366;entryX=0.5;entryY=0;entryDx=0;entryDy=0;" edge="1" parent="1" source="sHueJC7JdNg4kq73XcRV-4" target="sHueJC7JdNg4kq73XcRV-24">
          <mxGeometry width="50" height="50" relative="1" as="geometry">
            <mxPoint x="435" y="190" as="sourcePoint" />
            <mxPoint x="290" y="220" as="targetPoint" />
          </mxGeometry>
        </mxCell>
        <mxCell id="sHueJC7JdNg4kq73XcRV-26" value="Bio" style="rounded=1;whiteSpace=wrap;html=1;fillColor=#dae8fc;strokeColor=#6c8ebf;" vertex="1" parent="1">
          <mxGeometry x="80" y="300" width="120" height="60" as="geometry" />
        </mxCell>
        <mxCell id="sHueJC7JdNg4kq73XcRV-27" value="" style="endArrow=classic;html=1;rounded=0;exitX=0.5;exitY=1;exitDx=0;exitDy=0;edgeStyle=orthogonalEdgeStyle;curved=1;fillColor=#dae8fc;strokeColor=#6c8ebf;entryX=0.5;entryY=0;entryDx=0;entryDy=0;" edge="1" parent="1" source="sHueJC7JdNg4kq73XcRV-24" target="sHueJC7JdNg4kq73XcRV-26">
          <mxGeometry width="50" height="50" relative="1" as="geometry">
            <mxPoint x="290" y="280" as="sourcePoint" />
            <mxPoint x="290" y="310" as="targetPoint" />
          </mxGeometry>
        </mxCell>
        <mxCell id="sHueJC7JdNg4kq73XcRV-28" value="" style="endArrow=classic;html=1;rounded=0;exitX=0.5;exitY=1;exitDx=0;exitDy=0;edgeStyle=orthogonalEdgeStyle;curved=1;fillColor=#dae8fc;strokeColor=#6c8ebf;entryX=0.5;entryY=0;entryDx=0;entryDy=0;" edge="1" parent="1" source="sHueJC7JdNg4kq73XcRV-24" target="sHueJC7JdNg4kq73XcRV-16">
          <mxGeometry width="50" height="50" relative="1" as="geometry">
            <mxPoint x="435" y="280" as="sourcePoint" />
            <mxPoint x="290" y="310" as="targetPoint" />
          </mxGeometry>
        </mxCell>
        <mxCell id="sHueJC7JdNg4kq73XcRV-29" value="Interests" style="rounded=1;whiteSpace=wrap;html=1;fillColor=#dae8fc;strokeColor=#6c8ebf;" vertex="1" parent="1">
          <mxGeometry x="-60" y="300" width="120" height="60" as="geometry" />
        </mxCell>
        <mxCell id="sHueJC7JdNg4kq73XcRV-30" value="" style="endArrow=classic;html=1;rounded=0;edgeStyle=orthogonalEdgeStyle;curved=1;fillColor=#dae8fc;strokeColor=#6c8ebf;" edge="1" parent="1" target="sHueJC7JdNg4kq73XcRV-29">
          <mxGeometry width="50" height="50" relative="1" as="geometry">
            <mxPoint x="140" y="270" as="sourcePoint" />
            <mxPoint x="290" y="310" as="targetPoint" />
            <Array as="points">
              <mxPoint x="140" y="280" />
              <mxPoint y="280" />
            </Array>
          </mxGeometry>
        </mxCell>
        <mxCell id="sHueJC7JdNg4kq73XcRV-31" value="InterestField" style="rounded=1;whiteSpace=wrap;html=1;fillColor=#e1d5e7;strokeColor=#9673a6;" vertex="1" parent="1">
          <mxGeometry x="-60" y="380" width="120" height="60" as="geometry" />
        </mxCell>
        <mxCell id="sHueJC7JdNg4kq73XcRV-32" value="" style="endArrow=classic;html=1;rounded=0;edgeStyle=orthogonalEdgeStyle;curved=1;fillColor=#e1d5e7;strokeColor=#9673a6;exitX=0.5;exitY=1;exitDx=0;exitDy=0;entryX=0.5;entryY=0;entryDx=0;entryDy=0;" edge="1" parent="1" source="sHueJC7JdNg4kq73XcRV-29" target="sHueJC7JdNg4kq73XcRV-31">
          <mxGeometry width="50" height="50" relative="1" as="geometry">
            <mxPoint x="150" y="280" as="sourcePoint" />
            <mxPoint x="10" y="310" as="targetPoint" />
            <Array as="points">
              <mxPoint y="370" />
              <mxPoint y="370" />
            </Array>
          </mxGeometry>
        </mxCell>
        <mxCell id="sHueJC7JdNg4kq73XcRV-33" value="EditProfilePage" style="rounded=1;whiteSpace=wrap;html=1;fillColor=#d5e8d4;strokeColor=#82b366;" vertex="1" parent="1">
          <mxGeometry x="-60" y="210" width="120" height="60" as="geometry" />
        </mxCell>
        <mxCell id="sHueJC7JdNg4kq73XcRV-35" value="" style="endArrow=classic;html=1;rounded=0;exitX=0.5;exitY=1;exitDx=0;exitDy=0;entryX=0.5;entryY=0;entryDx=0;entryDy=0;edgeStyle=orthogonalEdgeStyle;curved=1;fillColor=#d5e8d4;strokeColor=#82b366;" edge="1" parent="1" source="sHueJC7JdNg4kq73XcRV-4" target="sHueJC7JdNg4kq73XcRV-33">
          <mxGeometry width="50" height="50" relative="1" as="geometry">
            <mxPoint x="435" y="190" as="sourcePoint" />
            <mxPoint x="580" y="220" as="targetPoint" />
          </mxGeometry>
        </mxCell>
        <mxCell id="sHueJC7JdNg4kq73XcRV-38" value="&lt;div&gt;FriendsList&lt;/div&gt;" style="rounded=1;whiteSpace=wrap;html=1;fillColor=#fad9d5;dashed=1;strokeColor=#ae4132;" vertex="1" parent="1">
          <mxGeometry x="-20" y="120" width="120" height="60" as="geometry" />
        </mxCell>
        <mxCell id="sHueJC7JdNg4kq73XcRV-39" value="" style="endArrow=classic;html=1;rounded=0;exitX=0.5;exitY=1;exitDx=0;exitDy=0;edgeStyle=orthogonalEdgeStyle;curved=1;fillColor=#f8cecc;strokeColor=#b85450;" edge="1" parent="1" source="sHueJC7JdNg4kq73XcRV-1" target="sHueJC7JdNg4kq73XcRV-38">
          <mxGeometry width="50" height="50" relative="1" as="geometry">
            <mxPoint x="435" y="100" as="sourcePoint" />
            <mxPoint x="240" y="130" as="targetPoint" />
          </mxGeometry>
        </mxCell>
        <mxCell id="sHueJC7JdNg4kq73XcRV-40" value="&lt;div&gt;UpdatesBoard&lt;/div&gt;" style="rounded=1;whiteSpace=wrap;html=1;fillColor=#dae8fc;strokeColor=#6c8ebf;" vertex="1" parent="1">
          <mxGeometry x="365" y="300" width="120" height="60" as="geometry" />
        </mxCell>
        <mxCell id="sHueJC7JdNg4kq73XcRV-41" value="" style="endArrow=classic;html=1;rounded=0;exitX=0.5;exitY=1;exitDx=0;exitDy=0;edgeStyle=orthogonalEdgeStyle;curved=1;fillColor=#dae8fc;strokeColor=#6c8ebf;entryX=0.5;entryY=0;entryDx=0;entryDy=0;" edge="1" parent="1" source="sHueJC7JdNg4kq73XcRV-8" target="sHueJC7JdNg4kq73XcRV-40">
          <mxGeometry width="50" height="50" relative="1" as="geometry">
            <mxPoint x="435" y="280" as="sourcePoint" />
            <mxPoint x="290" y="310" as="targetPoint" />
          </mxGeometry>
        </mxCell>
        <mxCell id="sHueJC7JdNg4kq73XcRV-42" value="AdminDashboard" style="rounded=1;whiteSpace=wrap;html=1;fillColor=#d5e8d4;strokeColor=#82b366;" vertex="1" parent="1">
          <mxGeometry x="660" y="210" width="120" height="60" as="geometry" />
        </mxCell>
        <mxCell id="sHueJC7JdNg4kq73XcRV-43" value="" style="endArrow=classic;html=1;rounded=0;exitX=0.5;exitY=1;exitDx=0;exitDy=0;entryX=0.5;entryY=0;entryDx=0;entryDy=0;edgeStyle=orthogonalEdgeStyle;curved=1;fillColor=#d5e8d4;strokeColor=#82b366;" edge="1" parent="1" source="sHueJC7JdNg4kq73XcRV-4" target="sHueJC7JdNg4kq73XcRV-42">
          <mxGeometry width="50" height="50" relative="1" as="geometry">
            <mxPoint x="435" y="190" as="sourcePoint" />
            <mxPoint x="580" y="220" as="targetPoint" />
          </mxGeometry>
        </mxCell>
        <mxCell id="sHueJC7JdNg4kq73XcRV-45" value="Crea" style="rounded=1;whiteSpace=wrap;html=1;fillColor=#dae8fc;strokeColor=#6c8ebf;" vertex="1" parent="1">
          <mxGeometry x="810" y="300" width="120" height="60" as="geometry" />
        </mxCell>
        <mxCell id="sHueJC7JdNg4kq73XcRV-46" value="" style="endArrow=classic;html=1;rounded=0;exitX=0.5;exitY=1;exitDx=0;exitDy=0;edgeStyle=orthogonalEdgeStyle;curved=1;fillColor=#dae8fc;strokeColor=#6c8ebf;entryX=0.5;entryY=0;entryDx=0;entryDy=0;" edge="1" parent="1" source="sHueJC7JdNg4kq73XcRV-42" target="sHueJC7JdNg4kq73XcRV-45">
          <mxGeometry width="50" height="50" relative="1" as="geometry">
            <mxPoint x="580" y="280" as="sourcePoint" />
            <mxPoint x="730" y="310" as="targetPoint" />
          </mxGeometry>
        </mxCell>
      </root>
    </mxGraphModel>
  </diagram>
</mxfile>
